<svg width="119" height="100" viewBox="0 0 119 100" fill="none" xmlns="http://www.w3.org/2000/svg">
<path d="M79.5545 31.37C71.1645 31.42 62.6445 31.03 54.6645 28.81C46.6845 26.59 39.6645 22.42 33.2345 17.55C29.0345 14.37 25.2345 11.85 19.7745 12.23C14.4455 12.5131 9.34835 14.5007 5.2345 17.9C-1.6955 23.97 -0.645498 35.19 2.1245 43.11C6.2845 54.97 18.9645 63.23 29.7345 68.6C42.1845 74.82 55.8645 78.43 69.5645 80.51C81.6245 82.34 97.0145 83.66 107.424 75.82C116.994 68.61 119.615 52.15 117.275 41.03C116.706 37.7461 114.956 34.7835 112.355 32.7C105.635 27.78 95.6145 31.07 88.0645 31.23C85.2645 31.29 82.4145 31.36 79.5545 31.37Z" fill="#F2F2F2"/>
<path d="M30.4846 74.15V78.46" stroke="#CFCFCF" stroke-linecap="round" stroke-linejoin="round"/>
<path d="M28.3345 76.3099H32.6445" stroke="#CFCFCF" stroke-linecap="round" stroke-linejoin="round"/>
<path d="M102.504 21.12V25.43" stroke="#CFCFCF" stroke-linecap="round" stroke-linejoin="round"/>
<path d="M100.354 23.28H104.664" stroke="#CFCFCF" stroke-linecap="round" stroke-linejoin="round"/>
<path d="M56.7244 1.96C57.2656 1.96 57.7044 1.52124 57.7044 0.980001C57.7044 0.438762 57.2656 0 56.7244 0C56.1831 0 55.7444 0.438762 55.7444 0.980001C55.7444 1.52124 56.1831 1.96 56.7244 1.96Z" fill="#CFCFCF"/>
<path d="M59.4446 99.99C79.7466 99.99 96.2046 98.9648 96.2046 97.7C96.2046 96.4353 79.7466 95.41 59.4446 95.41C39.1426 95.41 22.6846 96.4353 22.6846 97.7C22.6846 98.9648 39.1426 99.99 59.4446 99.99Z" fill="#F2F2F2"/>
<path d="M28.2744 52.43C28.2744 42.861 32.0757 33.6839 38.842 26.9176C45.6083 20.1512 54.7854 16.35 64.3544 16.35C73.9234 16.35 83.1005 20.1512 89.8668 26.9176C96.6331 33.6839 100.434 42.861 100.434 52.43" stroke="#BABABA" stroke-linecap="round" stroke-linejoin="round"/>
<path d="M96.4644 66.84H89.3444V38.39H96.4644C98.2096 38.39 99.8832 39.0832 101.117 40.3172C102.351 41.5512 103.044 43.2248 103.044 44.97V60.26C103.044 62.0051 102.351 63.6787 101.117 64.9127C99.8832 66.1467 98.2096 66.84 96.4644 66.84Z" fill="#D2D2D2"/>
<path d="M31.9946 38.39H39.1146V66.84H31.9946C30.2494 66.84 28.5758 66.1468 27.3418 64.9128C26.1078 63.6788 25.4146 62.0051 25.4146 60.26V44.97C25.4146 43.2249 26.1078 41.5512 27.3418 40.3173C28.5758 39.0833 30.2494 38.39 31.9946 38.39Z" fill="#D2D2D2"/>
<path d="M64.3546 82.6C81.017 82.6 94.5246 69.0924 94.5246 52.43C94.5246 35.7676 81.017 22.26 64.3546 22.26C47.6921 22.26 34.1846 35.7676 34.1846 52.43C34.1846 69.0924 47.6921 82.6 64.3546 82.6Z" fill="white" stroke="#BABABA" stroke-linecap="round" stroke-linejoin="round"/>
<path d="M54.9246 64.47C55.3924 62.3168 56.583 60.3885 58.2985 59.0057C60.014 57.6229 62.1511 56.8688 64.3546 56.8688C66.558 56.8688 68.6951 57.6229 70.4106 59.0057C72.1261 60.3885 73.3167 62.3168 73.7846 64.47" stroke="#BABABA" stroke-linecap="round" stroke-linejoin="round"/>
<path d="M75.0045 53.22C75.7446 53.22 76.3446 52.6201 76.3446 51.88C76.3446 51.14 75.7446 50.54 75.0045 50.54C74.2645 50.54 73.6646 51.14 73.6646 51.88C73.6646 52.6201 74.2645 53.22 75.0045 53.22Z" fill="#BABABA"/>
<path d="M53.7045 53.22C54.4446 53.22 55.0445 52.6201 55.0445 51.88C55.0445 51.14 54.4446 50.54 53.7045 50.54C52.9644 50.54 52.3645 51.14 52.3645 51.88C52.3645 52.6201 52.9644 53.22 53.7045 53.22Z" fill="#BABABA"/>
</svg>
