<svg width="24" height="16" viewBox="0 0 24 16" fill="none" xmlns="http://www.w3.org/2000/svg">
<path d="M15.5196 7.92149C15.5196 8.56149 15.1756 9.08989 14.5332 9.08989C14.2576 9.10789 13.9944 8.97269 13.8484 8.73829H13.84V9.91109H13.0936V6.88149H13.782V7.27109H13.7904C13.95 6.97989 14.264 6.80829 14.5952 6.83109C15.1496 6.87429 15.5636 7.35869 15.5204 7.91269C15.52 7.91549 15.52 7.91869 15.5196 7.92149Z" fill="white"/>
<path d="M0 2C0 0.895431 0.895431 0 2 0H22C23.1046 0 24 0.895431 24 2V14C24 15.1046 23.1046 16 22 16H2C0.89543 16 0 15.1046 0 14V2Z" fill="#D0E1FB"/>
<path d="M17.9996 8.53043C17.9964 8.70123 18.01 8.87203 18.0396 9.04003H17.3556C17.3516 8.92443 17.3388 8.81203 17.3388 8.70043H17.3304C17.196 8.95083 16.9304 9.10203 16.6464 9.09003C16.2192 9.09003 15.838 8.87843 15.838 8.41003C15.838 7.75123 16.5552 7.67243 16.9536 7.67243C17.0704 7.67283 17.1868 7.68243 17.3016 7.70123C17.2972 7.40683 17.0776 7.32843 16.808 7.32843C16.5688 7.32243 16.332 7.37763 16.1196 7.48843L16.1068 6.98283C16.3816 6.87523 16.6748 6.82323 16.9696 6.82963C17.5216 6.82963 17.9984 7.06523 17.9984 7.72403L17.9996 8.53043Z" fill="white"/>
<path d="M14.5952 6.83112C14.264 6.80832 13.95 6.98032 13.7904 7.27112H13.782V6.88152H13.0936V9.91112H13.84V8.73832H13.8484C13.9948 8.97272 14.2576 9.10792 14.5332 9.08992C15.1756 9.08992 15.5196 8.55992 15.5196 7.92152C15.568 7.36792 15.158 6.87992 14.604 6.83192C14.6012 6.83152 14.5984 6.83112 14.5952 6.83112ZM18.0032 8.52992V7.72592C18.0032 7.06712 17.5268 6.83152 16.9744 6.83152C16.6796 6.82512 16.3864 6.87712 16.1116 6.98472L16.1244 7.49032C16.3368 7.37952 16.5736 7.32432 16.8128 7.33032C17.0824 7.33032 17.302 7.41032 17.3064 7.70312C17.1916 7.68432 17.0752 7.67472 16.9584 7.67432C16.5584 7.67432 15.8428 7.75432 15.8428 8.41192C15.8428 8.87992 16.224 9.09192 16.6512 9.09192C16.9352 9.10392 17.2008 8.95272 17.3352 8.70232H17.3436C17.3436 8.81392 17.3564 8.92592 17.3604 9.04192H18.0432C18.0132 8.87272 18 8.70152 18.0032 8.52992Z" fill="#0B3677"/>
<path d="M20.0108 8.608L19.9 8.888C19.688 9.4304 19.5264 9.9568 18.8424 9.9568C18.686 9.9568 18.5304 9.9404 18.378 9.9072L18.428 9.3388C18.5228 9.3708 18.6224 9.3864 18.7224 9.3848C18.9032 9.388 19.0612 9.2628 19.0996 9.086L18.2248 6.8776H19.0288L19.4932 8.2868H19.5016L19.9448 6.8776H20.6916L20.0108 8.608ZM17.3584 9.038C17.3544 8.922 17.3416 8.81 17.3416 8.6984H17.3332C17.1988 8.9488 16.9328 9.1 16.6492 9.088C16.222 9.088 15.8408 8.8764 15.8408 8.408C15.8408 7.7492 16.558 7.6704 16.9564 7.6704C17.0728 7.6708 17.1892 7.6804 17.3044 7.6992C17.3 7.4048 17.0804 7.3264 16.8108 7.3264C16.5712 7.3204 16.3344 7.3752 16.1224 7.4864L16.1096 6.9808C16.3844 6.8732 16.6776 6.8212 16.9724 6.8276C17.5244 6.8276 18.0012 7.0632 18.0012 7.722V8.526C17.998 8.6968 18.0112 8.8672 18.0412 9.0356L17.3584 9.038ZM14.5308 9.0876C14.2552 9.1056 13.992 8.9704 13.846 8.736H13.8376V9.908H13.0912V6.8784H13.7796V7.268H13.788C13.9476 6.9768 14.2616 6.8052 14.5928 6.828C15.1468 6.8716 15.5608 7.356 15.5172 7.91C15.5172 7.9124 15.5168 7.9148 15.5168 7.9172C15.5172 8.5556 15.1736 9.0856 14.5312 9.0856L14.5308 9.0876ZM12.3832 11.6876H3.4924C3.0208 11.6872 2.6388 11.3052 2.638 10.834V5.166C2.6384 4.6944 3.0208 4.3124 3.4924 4.3124H12.3832V11.6876ZM20.5088 3.6748H3.4924C2.6688 3.6744 2.0004 4.3416 2 5.1656V10.834C2.0008 11.6576 2.6688 12.3248 3.4924 12.3252H20.5076C21.3312 12.3252 21.9996 11.658 22 10.834V5.166C22 4.3424 21.3324 3.6748 20.5088 3.6748Z" fill="#0B3677"/>
<path d="M14.2964 8.51793C14.018 8.49193 13.8136 8.24512 13.8396 7.96672C13.8396 7.64312 14.0224 7.40352 14.2964 7.40352C14.56 7.41592 14.7636 7.63912 14.7512 7.90272C14.7508 7.91432 14.7496 7.92632 14.7484 7.93792C14.7484 8.28112 14.5784 8.51793 14.2968 8.51793H14.2964ZM14.5952 6.83112C14.264 6.80832 13.95 6.97992 13.7904 7.27112H13.782V6.88152H13.0936V9.91113H13.84V8.73833H13.8484C13.9944 8.97273 14.2576 9.10793 14.5332 9.08993C15.1756 9.08993 15.5196 8.55993 15.5196 7.92152C15.5676 7.36792 15.1576 6.87992 14.604 6.83192C14.6012 6.83152 14.598 6.83112 14.5952 6.83112Z" fill="white"/>
<path d="M16.8411 8.59C16.6667 8.59 16.5339 8.5032 16.5339 8.354C16.5339 8.1464 16.7339 8.068 16.9863 8.068C17.0979 8.068 17.2059 8.0756 17.3011 8.08C17.3147 8.3476 17.1087 8.576 16.8411 8.59ZM17.9983 8.528V7.724C17.9983 7.0652 17.5219 6.8296 16.9695 6.8296C16.6743 6.8232 16.3815 6.8752 16.1067 6.9828L16.1195 7.4884C16.3315 7.3772 16.5683 7.3224 16.8079 7.3284C17.0775 7.3284 17.2971 7.4084 17.3015 7.7012C17.1863 7.6824 17.0699 7.6728 16.9535 7.6724C16.5535 7.6724 15.8379 7.7524 15.8379 8.41C15.8379 8.878 16.2191 9.09 16.6463 9.09C16.9299 9.102 17.1959 8.9504 17.3303 8.7004H17.3387C17.3387 8.812 17.3515 8.924 17.3555 9.04H18.0395C18.0091 8.8712 17.9951 8.6996 17.9983 8.528Z" fill="white"/>
<path d="M20.6964 6.8791L20.0164 8.6083L19.9056 8.8883C19.6936 9.4307 19.532 9.9571 18.848 9.9571C18.692 9.9571 18.5364 9.9407 18.3836 9.9075L18.4336 9.3391C18.5284 9.3711 18.628 9.3871 18.728 9.3851C18.9088 9.3883 19.0668 9.2631 19.1052 9.0863L18.2304 6.8779H19.0344L19.4988 8.2871H19.5072L19.9504 6.8779L20.6964 6.8791Z" fill="white"/>
<path d="M3.1875 9V6.09091H5.23295V6.72727H3.97727V7.22727H5.10795V7.86364H3.97727V9H3.1875ZM6.09588 9.03409C5.95668 9.03409 5.83357 9.01136 5.72656 8.96591C5.6205 8.91951 5.53717 8.84943 5.47656 8.75568C5.41596 8.66193 5.38565 8.54261 5.38565 8.39773C5.38565 8.27841 5.40601 8.17661 5.44673 8.09233C5.48745 8.0071 5.54427 7.9375 5.61719 7.88352C5.6901 7.82955 5.77486 7.78835 5.87145 7.75994C5.96899 7.73153 6.0741 7.71307 6.18679 7.70455C6.30895 7.69508 6.40696 7.68371 6.48082 7.67045C6.55563 7.65625 6.60961 7.63684 6.64276 7.61222C6.6759 7.58665 6.69247 7.55303 6.69247 7.51136V7.50568C6.69247 7.44886 6.67069 7.4053 6.62713 7.375C6.58357 7.3447 6.5277 7.32955 6.45952 7.32955C6.38471 7.32955 6.32363 7.34612 6.27628 7.37926C6.22988 7.41146 6.20194 7.46117 6.19247 7.52841H5.47088C5.48035 7.39583 5.52249 7.27367 5.5973 7.16193C5.67306 7.04924 5.78338 6.95928 5.92827 6.89205C6.07315 6.82386 6.25402 6.78977 6.47088 6.78977C6.62713 6.78977 6.76728 6.80824 6.89134 6.84517C7.01539 6.88116 7.12098 6.93182 7.2081 6.99716C7.29522 7.06155 7.36151 7.13731 7.40696 7.22443C7.45336 7.31061 7.47656 7.40436 7.47656 7.50568V9H6.74361V8.69318H6.72656C6.683 8.77462 6.62997 8.84044 6.56747 8.89062C6.50592 8.94081 6.43537 8.97727 6.35582 9C6.27723 9.02273 6.19058 9.03409 6.09588 9.03409ZM6.35156 8.53977C6.41122 8.53977 6.46709 8.52746 6.51918 8.50284C6.57221 8.47822 6.61529 8.44271 6.64844 8.39631C6.68158 8.34991 6.69815 8.29356 6.69815 8.22727V8.04545C6.67732 8.05398 6.65507 8.06203 6.63139 8.0696C6.60866 8.07718 6.58404 8.08428 6.55753 8.09091C6.53196 8.09754 6.5045 8.10369 6.47514 8.10938C6.44673 8.11506 6.4169 8.12027 6.38565 8.125C6.32505 8.13447 6.27533 8.15009 6.23651 8.17188C6.19863 8.19271 6.17022 8.21875 6.15128 8.25C6.13329 8.2803 6.12429 8.31439 6.12429 8.35227C6.12429 8.41288 6.1456 8.45928 6.18821 8.49148C6.23082 8.52367 6.28527 8.53977 6.35156 8.53977ZM9.84553 7.52841H9.12393C9.12015 7.4839 9.10452 7.44555 9.07706 7.41335C9.0496 7.38116 9.01409 7.35653 8.97053 7.33949C8.92791 7.3215 8.88056 7.3125 8.82848 7.3125C8.76125 7.3125 8.70348 7.32481 8.65518 7.34943C8.60689 7.37405 8.58321 7.40909 8.58416 7.45455C8.58321 7.48674 8.59695 7.51657 8.62536 7.54403C8.65471 7.5715 8.71106 7.5928 8.79439 7.60795L9.23757 7.6875C9.46106 7.72822 9.62725 7.79687 9.73615 7.89347C9.846 7.98911 9.9014 8.11742 9.90234 8.27841C9.9014 8.43371 9.855 8.56866 9.76314 8.68324C9.67223 8.79687 9.5477 8.88494 9.38956 8.94744C9.23236 9.009 9.05291 9.03977 8.85121 9.03977C8.51787 9.03977 8.25698 8.97159 8.06854 8.83523C7.88104 8.69886 7.7764 8.51894 7.75462 8.29545H8.53303C8.54344 8.36458 8.57753 8.41809 8.6353 8.45597C8.69401 8.4929 8.76787 8.51136 8.85689 8.51136C8.92886 8.51136 8.98804 8.49905 9.03445 8.47443C9.08179 8.44981 9.10594 8.41477 9.10689 8.36932C9.10594 8.32765 9.08511 8.29451 9.04439 8.26989C9.00462 8.24527 8.94212 8.22538 8.85689 8.21023L8.47053 8.14205C8.24799 8.10322 8.08132 8.02936 7.97053 7.92045C7.85973 7.81155 7.80481 7.6714 7.80575 7.5C7.80481 7.34848 7.84458 7.22017 7.92507 7.11506C8.00651 7.009 8.12251 6.9285 8.27308 6.87358C8.4246 6.81771 8.60405 6.78977 8.81143 6.78977C9.12678 6.78977 9.37536 6.85511 9.55717 6.9858C9.73994 7.11648 9.83606 7.29735 9.84553 7.52841ZM11.5039 6.81818V7.38636H10.0664V6.81818H11.5039ZM10.3448 6.29545H11.1289V8.2983C11.1289 8.3286 11.1341 8.35417 11.1445 8.375C11.1549 8.39489 11.171 8.41004 11.1928 8.42045C11.2146 8.42992 11.2425 8.43466 11.2766 8.43466C11.3003 8.43466 11.3278 8.43182 11.359 8.42614C11.3912 8.42045 11.4149 8.41572 11.43 8.41193L11.5437 8.96307C11.5086 8.97348 11.4585 8.98627 11.3931 9.00142C11.3287 9.01657 11.252 9.02652 11.163 9.03125C10.9831 9.04072 10.832 9.02225 10.7099 8.97585C10.5877 8.9285 10.4959 8.85417 10.4343 8.75284C10.3728 8.65152 10.3429 8.52462 10.3448 8.37216V6.29545Z" fill="#A40404"/>
</svg>
