<svg width="30" height="31" viewBox="0 0 30 31" fill="none" xmlns="http://www.w3.org/2000/svg">
<path d="M16.3258 0.567481C15.5936 -0.18916 14.4064 -0.18916 13.6742 0.567481L0.549175 14.13C-0.183058 14.8866 -0.183058 16.1134 0.549175 16.87C1.28141 17.6267 2.46859 17.6267 3.20083 16.87L3.75 16.3025V29.0625C3.75 30.1326 4.58947 31 5.625 31H9.375C10.4105 31 11.25 30.1326 11.25 29.0625V25.1875C11.25 24.1174 12.0895 23.25 13.125 23.25H16.875C17.9105 23.25 18.75 24.1174 18.75 25.1875V29.0625C18.75 30.1326 19.5895 31 20.625 31H24.375C25.4105 31 26.25 30.1326 26.25 29.0625V16.3025L26.7992 16.87C27.5314 17.6267 28.7186 17.6267 29.4508 16.87C30.1831 16.1134 30.1831 14.8866 29.4508 14.13L16.3258 0.567481Z" fill="#101010"/>
</svg>
