<svg width="112" height="25" viewBox="0 0 112 25" fill="none" xmlns="http://www.w3.org/2000/svg">
<path d="M47.4181 2.80697L49.6206 8.78126L51.8232 2.80697H52.7117L50.2162 9.49023H49.0251L46.52 2.80697H47.4181ZM59.2118 9.49023H58.3894V2.80697H59.2118V9.49023ZM67.0364 9.49023V3.55375H64.8906V2.80697H70.0047V3.55375H67.8588V9.49023H67.0364ZM76.5115 6.98519V9.49023H75.6891V2.80697H78.1941C78.5597 2.80697 78.8905 2.84478 79.1867 2.9204C79.4829 2.99603 79.735 3.11577 79.9429 3.27962C80.1509 3.44347 80.3085 3.66089 80.4156 3.93187C80.529 4.19656 80.5857 4.51796 80.5857 4.89608C80.5857 5.17337 80.5448 5.4223 80.4629 5.64287C80.3809 5.85713 80.2706 6.04619 80.132 6.21005C79.9997 6.3676 79.8421 6.49994 79.6594 6.60707C79.4766 6.7079 79.2875 6.78668 79.0922 6.8434L80.4912 9.49023H79.5932L78.2603 6.98519H76.5115ZM77.9295 6.2384C78.1752 6.2384 78.4053 6.2195 78.6195 6.18169C78.8401 6.14387 79.0323 6.07455 79.1962 5.97372C79.36 5.87289 79.4892 5.7374 79.5837 5.56724C79.6846 5.39079 79.7381 5.15761 79.7444 4.86772C79.7444 4.38877 79.6026 4.05161 79.319 3.85625C79.0418 3.65459 78.6384 3.55375 78.1091 3.55375H76.5115V6.2384H77.9295ZM87.46 9.49023H86.6376V2.80697H87.46V9.49023ZM93.8289 9.49023V2.80697H94.8782L98.3663 8.37478V2.80697H99.1887V9.49023H98.1583L94.6513 3.94133V9.49023H93.8289ZM110.09 9.49023L109.561 8.05338H106.252L105.723 9.49023H104.834L107.32 2.80697H108.502L110.979 9.49023H110.09ZM107.906 3.5254L106.526 7.30659H109.287L107.906 3.5254ZM57.1502 15.4781C56.7595 15.4781 56.4255 15.5475 56.1482 15.6861C55.8709 15.8247 55.644 16.017 55.4676 16.2627C55.2911 16.5022 55.1619 16.7858 55.08 17.1135C54.9981 17.4349 54.9571 17.7815 54.9571 18.1533C54.9571 18.5251 55.0012 18.8718 55.0895 19.1932C55.1777 19.5146 55.31 19.7981 55.4865 20.0439C55.6693 20.2834 55.8993 20.4725 56.1766 20.6111C56.4602 20.7497 56.7973 20.8191 57.188 20.8191C57.856 20.8191 58.3571 20.6426 58.6911 20.2897C58.8864 20.088 59.0251 19.8706 59.107 19.6374C59.1889 19.4043 59.2299 19.1459 59.2299 18.8623H57.0368V18.1155H60.0145V18.6732C60.0145 18.856 59.9987 19.0451 59.9672 19.2404C59.9357 19.4358 59.8884 19.628 59.8254 19.8171C59.7624 19.9998 59.6805 20.1763 59.5796 20.3464C59.4851 20.5103 59.3717 20.6584 59.2393 20.7907C58.9873 21.0302 58.6879 21.2192 58.3413 21.3579C58.001 21.4965 57.6134 21.5659 57.1786 21.5659C56.6555 21.5659 56.2018 21.4808 55.8174 21.3106C55.4392 21.1405 55.121 20.9073 54.8626 20.6111C54.6105 20.3086 54.4215 19.9494 54.2954 19.5335C54.1757 19.1175 54.1158 18.6638 54.1158 18.1722C54.1158 17.6807 54.1757 17.2269 54.2954 16.811C54.4215 16.3888 54.6074 16.0264 54.8531 15.7239C55.1052 15.4151 55.4203 15.1725 55.7984 14.996C56.1829 14.8196 56.6366 14.7313 57.1597 14.7313C57.897 14.7313 58.4925 14.8983 58.9463 15.2324C59.4 15.5601 59.6994 16.0012 59.8443 16.5558H58.9463C58.8518 16.2281 58.6469 15.9665 58.3318 15.7712C58.0167 15.5758 57.6229 15.4781 57.1502 15.4781ZM66.837 18.9852V21.4902H66.0145V14.807H68.5196C68.8851 14.807 69.216 14.8448 69.5122 14.9204C69.8083 14.996 70.0604 15.1158 70.2684 15.2796C70.4764 15.4435 70.6339 15.6609 70.741 15.9319C70.8545 16.1966 70.9112 16.518 70.9112 16.8961C70.9112 17.1734 70.8702 17.4223 70.7883 17.6429C70.7064 17.8571 70.5961 18.0462 70.4575 18.21C70.3251 18.3676 70.1676 18.4999 69.9848 18.6071C69.802 18.7079 69.613 18.7867 69.4176 18.8434L70.8167 21.4902H69.9186L68.5858 18.9852H66.837ZM68.2549 18.2384C68.5007 18.2384 68.7307 18.2195 68.945 18.1817C69.1655 18.1439 69.3578 18.0746 69.5216 17.9737C69.6855 17.8729 69.8147 17.7374 69.9092 17.5672C70.01 17.3908 70.0636 17.1576 70.0699 16.8677C70.0699 16.3888 69.9281 16.0516 69.6445 15.8563C69.3672 15.6546 68.9639 15.5538 68.4345 15.5538H66.837V18.2384H68.2549ZM81.491 21.4902L80.9617 20.0534H77.6531L77.1237 21.4902H76.2352L78.7213 14.807H79.9029L82.3796 21.4902H81.491ZM79.3074 15.5254L77.9272 19.3066H80.6875L79.3074 15.5254ZM88.0223 21.4902V14.807H89.2701L91.2741 18.4842L93.2498 14.807H94.4692V21.4902H93.6468V15.6766L91.4443 19.7414H91.0662L88.8447 15.6766V21.4902H88.0223Z" fill="#333649"/>
<path fill-rule="evenodd" clip-rule="evenodd" d="M16.305 4.25087V0.57861C16.3887 0.578708 16.4732 0.582859 16.5577 0.58701C16.6433 0.591212 16.7289 0.595415 16.8137 0.595415C17.6452 0.595478 18.664 0.590546 19.7542 0.585269L19.7548 0.585265C23.4359 0.567444 27.9303 0.545687 28.7742 0.698902C29.6322 0.854679 30.4302 1.13639 31.1683 1.54404C31.5136 1.73459 31.8755 1.9829 32.2541 2.28898C32.4699 2.46365 32.6708 2.64927 32.857 2.84584C33.9844 4.03566 34.6489 5.43478 34.8507 7.04321C34.891 7.3638 34.9034 7.7683 34.8881 8.25671C34.8791 8.54335 34.8524 8.81493 34.808 9.07146C34.5104 10.7886 33.7224 12.2184 32.4438 13.3608C31.6012 14.1142 30.6195 14.6436 29.499 14.9488C28.3207 15.2697 27.1311 15.288 25.9303 15.0039C22.868 14.2791 20.6258 11.6767 20.3384 8.55033C20.311 8.25137 20.3015 7.97801 20.31 7.73024C20.3689 6.01888 20.9468 4.50272 22.0438 3.18176C22.0649 3.1565 22.0895 3.1351 22.1143 3.11361L22.1144 3.11352C22.1331 3.09732 22.1518 3.08107 22.1691 3.06308C22.171 3.06102 22.1723 3.05844 22.1728 3.05566C22.1733 3.05287 22.1729 3.05001 22.1718 3.04742C22.1706 3.04484 22.1688 3.04265 22.1664 3.04112C22.164 3.0396 22.1612 3.03881 22.1584 3.03885C21.2971 3.03885 20.4372 3.04915 19.5786 3.05943C18.7228 3.06968 17.8684 3.07992 17.0153 3.07992C16.9156 3.07992 16.8647 3.18485 16.8284 3.25974L16.8252 3.26636C16.6779 3.5661 16.532 3.83385 16.3876 4.09907C16.36 4.14969 16.3325 4.20023 16.305 4.25087ZM31.9675 9.88375C32.1211 9.53934 32.227 9.23025 32.2853 8.95648C32.3765 8.52775 32.4373 8.06124 32.3995 7.61813C32.2867 6.29936 31.7598 5.20933 30.8188 4.34804C30.3799 3.94641 29.8045 3.58626 29.2633 3.39695C28.5178 3.13659 27.7314 3.05842 26.904 3.16246C26.6192 3.19835 26.34 3.27976 26.0652 3.35992C25.9501 3.39347 25.8358 3.42681 25.7221 3.45649C25.6822 3.4669 25.6429 3.48647 25.6065 3.50782C25.2278 3.72931 24.9338 3.91534 24.7222 4.0733C22.6837 5.59521 22.2126 8.49695 23.6409 10.6008C24.2684 11.5253 25.1391 12.1605 26.2531 12.5062C26.4653 12.5719 26.691 12.6193 26.9303 12.6483C28.3208 12.8172 29.5435 12.4838 30.5983 11.6479C31.1958 11.1745 31.657 10.579 31.9675 9.88375Z" fill="#333649"/>
<path d="M36.797 2.82727C37.3955 2.82727 37.8807 2.34206 37.8807 1.74353C37.8807 1.145 37.3955 0.659796 36.797 0.659796C36.1984 0.659796 35.7132 1.145 35.7132 1.74353C35.7132 2.34206 36.1984 2.82727 36.797 2.82727Z" fill="#333649"/>
<path fill-rule="evenodd" clip-rule="evenodd" d="M30.5755 20.0369H21.7873C21.0048 20.0369 20.3705 19.4026 20.3705 18.6202C20.3705 17.8377 21.0048 17.2034 21.7873 17.2034H30.5755C31.522 17.2034 32.5736 17.3795 33.4303 17.9617C34.3692 18.5998 34.9079 19.6157 34.9079 20.8788C34.9079 22.1744 34.3216 23.1812 33.389 23.8029C32.5332 24.3735 31.4931 24.5542 30.5755 24.5542H25.0726C24.2901 24.5542 23.6558 23.9199 23.6558 23.1374C23.6558 22.355 24.2901 21.7206 25.0726 21.7206H30.5755C31.1773 21.7206 31.595 21.5934 31.8172 21.4453C31.9153 21.3799 31.9678 21.3164 32.0003 21.2558C32.0325 21.1957 32.0744 21.0835 32.0744 20.8788C32.0744 20.6603 32.0318 20.5411 32.0004 20.4799C31.9701 20.4209 31.9239 20.364 31.8375 20.3053C31.6367 20.1688 31.2305 20.0369 30.5755 20.0369Z" fill="#333649"/>
<path fill-rule="evenodd" clip-rule="evenodd" d="M9.3648 11.0064L3.62557 1.27736C3.228 0.603414 2.35938 0.379364 1.68544 0.776926C1.01149 1.17449 0.787444 2.04311 1.18501 2.71706L8.12684 14.4848C8.68294 15.4275 10.0467 15.4275 10.6028 14.4848L17.5446 2.71706C17.9422 2.04311 17.7181 1.17449 17.0442 0.776926C16.3702 0.379364 15.5016 0.603415 15.104 1.27736L9.3648 11.0064Z" fill="#333649"/>
<path d="M47.4705 19.6929C48.069 19.6929 48.5542 19.2077 48.5542 18.6091C48.5542 18.0106 48.069 17.5254 47.4705 17.5254C46.8719 17.5254 46.3867 18.0106 46.3867 18.6091C46.3867 19.2077 46.8719 19.6929 47.4705 19.6929Z" fill="#333649"/>
</svg>
