<svg width="45" height="45" viewBox="0 0 45 45" fill="none" xmlns="http://www.w3.org/2000/svg">
<circle cx="22.5" cy="22.5" r="20.5" stroke="#00C5F2" stroke-width="4"/>
<path d="M28 19.6665C28 18.3404 27.4732 17.0687 26.5355 16.131C25.5979 15.1933 24.3261 14.6665 23 14.6665C21.6739 14.6665 20.4021 15.1933 19.4645 16.131C18.5268 17.0687 18 18.3404 18 19.6665C18 25.4998 15.5 27.1665 15.5 27.1665H30.5C30.5 27.1665 28 25.4998 28 19.6665Z" stroke="#1C75E4" stroke-width="2" stroke-linecap="round" stroke-linejoin="round"/>
<path d="M24.4419 30.5C24.2954 30.7526 24.0851 30.9622 23.8321 31.1079C23.5791 31.2537 23.2922 31.3304 23.0003 31.3304C22.7083 31.3304 22.4214 31.2537 22.1684 31.1079C21.9154 30.9622 21.7051 30.7526 21.5586 30.5" stroke="#1C75E4" stroke-width="2" stroke-linecap="round" stroke-linejoin="round"/>
</svg>
