<svg width="58" height="64" viewBox="0 0 58 64" fill="none" xmlns="http://www.w3.org/2000/svg">
<path fill-rule="evenodd" clip-rule="evenodd" d="M25.9195 0.762451C21.8695 0.762828 17.8783 1.81973 14.2789 3.84498C10.6795 5.87024 7.57629 8.80511 5.22813 12.4047C2.87997 16.0044 1.35497 20.1644 0.780364 24.5377C0.205761 28.911 0.598217 33.3708 1.92499 37.5451C3.25176 41.7193 5.47437 45.4869 8.4074 48.5335C11.3404 51.5801 14.8988 53.8173 18.7856 55.0587C22.6725 56.3 26.7751 56.5093 30.7512 55.6692C34.7273 54.8291 38.4616 52.964 41.6425 50.2293L52.5548 62.1332C53.1184 62.7269 53.8732 63.0555 54.6566 63.048C55.4401 63.0406 56.1895 62.6978 56.7435 62.0935C57.2975 61.4891 57.6118 60.6716 57.6186 59.8169C57.6254 58.9623 57.3242 58.1389 56.7799 57.5242L45.8676 45.6203C48.8198 41.5349 50.6579 36.6253 51.1717 31.4534C51.6854 26.2816 50.854 21.0564 48.7727 16.376C46.6913 11.6955 43.444 7.74882 39.4024 4.98758C35.3609 2.22633 30.6883 0.762102 25.9195 0.762451ZM6.49734 28.4686C6.49734 22.8494 8.5436 17.4604 12.186 13.4871C15.8283 9.51374 20.7684 7.28154 25.9195 7.28154C31.0706 7.28154 36.0107 9.51374 39.6531 13.4871C43.2955 17.4604 45.3417 22.8494 45.3417 28.4686C45.3417 34.0877 43.2955 39.4768 39.6531 43.4501C36.0107 47.4234 31.0706 49.6556 25.9195 49.6556C20.7684 49.6556 15.8283 47.4234 12.186 43.4501C8.5436 39.4768 6.49734 34.0877 6.49734 28.4686Z" fill="#333649"/>
</svg>
