<svg width="56" height="56" viewBox="0 0 56 56" fill="none" xmlns="http://www.w3.org/2000/svg">
<circle cx="28" cy="28" r="28" fill="#23A26D" fill-opacity="0.12"/>
<path d="M27.5001 14.6667C20.1534 14.6667 14.1667 20.6533 14.1667 28C14.1667 35.3467 20.1534 41.3333 27.5001 41.3333C34.8467 41.3333 40.8334 35.3467 40.8334 28C40.8334 20.6533 34.8467 14.6667 27.5001 14.6667ZM33.8734 24.9333L26.3134 32.4933C26.1267 32.68 25.8734 32.7867 25.6067 32.7867C25.3401 32.7867 25.0867 32.68 24.9001 32.4933L21.1267 28.72C20.7401 28.3333 20.7401 27.6933 21.1267 27.3067C21.5134 26.92 22.1534 26.92 22.5401 27.3067L25.6067 30.3733L32.4601 23.52C32.8467 23.1333 33.4867 23.1333 33.8734 23.52C34.2601 23.9067 34.2601 24.5333 33.8734 24.9333Z" fill="#23A26D"/>
</svg>
