<svg width="447" height="367" viewBox="0 0 447 367" fill="none" xmlns="http://www.w3.org/2000/svg">
<path d="M48.7909 340.898L54.7567 357.08L60.7225 340.898H63.1293L56.3698 359H53.1436L46.3585 340.898H48.7909ZM80.7353 359H78.5077V340.898H80.7353V359ZM101.929 359V342.92H96.1169V340.898H109.969V342.92H104.157V359H101.929ZM127.593 352.215V359H125.366V340.898H132.151C133.141 340.898 134.037 341 134.839 341.205C135.641 341.41 136.324 341.734 136.888 342.178C137.451 342.622 137.878 343.211 138.168 343.945C138.475 344.662 138.629 345.532 138.629 346.556C138.629 347.307 138.518 347.982 138.296 348.579C138.074 349.159 137.775 349.671 137.4 350.115C137.041 350.542 136.614 350.9 136.119 351.191C135.624 351.464 135.112 351.677 134.583 351.831L138.373 359H135.94L132.33 352.215H127.593ZM131.434 350.192C132.1 350.192 132.723 350.141 133.303 350.038C133.9 349.936 134.421 349.748 134.865 349.475C135.309 349.202 135.659 348.835 135.915 348.374C136.188 347.896 136.333 347.265 136.35 346.479C136.35 345.182 135.966 344.269 135.198 343.74C134.447 343.194 133.354 342.92 131.92 342.92H127.593V350.192H131.434ZM157.248 359H155.021V340.898H157.248V359ZM174.499 359V340.898H177.341L186.789 355.979V340.898H189.017V359H186.226L176.726 343.97V359H174.499ZM218.544 359L217.11 355.108H208.148L206.715 359H204.308L211.042 340.898H214.242L220.951 359H218.544ZM212.629 342.844L208.891 353.085H216.367L212.629 342.844ZM282.861 342.716C281.803 342.716 280.898 342.903 280.147 343.279C279.396 343.654 278.782 344.175 278.304 344.841C277.826 345.489 277.476 346.258 277.254 347.145C277.032 348.016 276.921 348.955 276.921 349.962C276.921 350.969 277.041 351.908 277.28 352.778C277.519 353.649 277.877 354.417 278.355 355.083C278.85 355.731 279.473 356.243 280.224 356.619C280.992 356.994 281.906 357.182 282.964 357.182C284.773 357.182 286.13 356.704 287.035 355.748C287.564 355.202 287.94 354.613 288.161 353.982C288.383 353.35 288.494 352.65 288.494 351.882H282.554V349.859H290.62V351.37C290.62 351.865 290.577 352.377 290.491 352.906C290.406 353.435 290.278 353.956 290.107 354.468C289.937 354.963 289.715 355.441 289.442 355.902C289.186 356.346 288.878 356.747 288.52 357.105C287.837 357.754 287.026 358.266 286.088 358.642C285.166 359.017 284.116 359.205 282.938 359.205C281.521 359.205 280.292 358.974 279.251 358.514C278.227 358.053 277.365 357.421 276.665 356.619C275.982 355.799 275.47 354.826 275.129 353.7C274.805 352.573 274.642 351.344 274.642 350.013C274.642 348.681 274.805 347.452 275.129 346.326C275.47 345.182 275.974 344.201 276.64 343.381C277.322 342.545 278.176 341.888 279.2 341.41C280.241 340.932 281.47 340.693 282.887 340.693C284.884 340.693 286.497 341.145 287.726 342.05C288.955 342.938 289.766 344.132 290.159 345.635H287.726C287.47 344.747 286.915 344.039 286.062 343.509C285.208 342.98 284.142 342.716 282.861 342.716ZM309.099 352.215V359H306.871V340.898H313.656C314.646 340.898 315.543 341 316.345 341.205C317.147 341.41 317.83 341.734 318.393 342.178C318.956 342.622 319.383 343.211 319.673 343.945C319.981 344.662 320.134 345.532 320.134 346.556C320.134 347.307 320.023 347.982 319.801 348.579C319.58 349.159 319.281 349.671 318.905 350.115C318.547 350.542 318.12 350.9 317.625 351.191C317.13 351.464 316.618 351.677 316.089 351.831L319.878 359H317.446L313.836 352.215H309.099ZM312.939 350.192C313.605 350.192 314.228 350.141 314.809 350.038C315.406 349.936 315.927 349.748 316.37 349.475C316.814 349.202 317.164 348.835 317.42 348.374C317.693 347.896 317.838 347.265 317.856 346.479C317.856 345.182 317.471 344.269 316.703 343.74C315.952 343.194 314.86 342.92 313.426 342.92H309.099V350.192H312.939ZM348.791 359L347.357 355.108H338.395L336.962 359H334.555L341.289 340.898H344.489L351.198 359H348.791ZM342.876 342.844L339.138 353.085H346.614L342.876 342.844ZM366.481 359V340.898H369.861L375.289 350.858L380.641 340.898H383.943V359H381.716V343.253L375.75 354.263H374.726L368.709 343.253V359H366.481Z" fill="#EFF1FE"/>
<circle cx="252.674" cy="349.605" r="3.97279" fill="#EFF1FE" stroke="#EFF1FE" stroke-width="0.993197"/>
<path fill-rule="evenodd" clip-rule="evenodd" d="M185.22 44.4782V0.0708207C186.232 0.0720028 187.254 0.122196 188.276 0.172389C189.311 0.223204 190.346 0.274034 191.371 0.274034C201.426 0.274792 213.746 0.215157 226.93 0.151339L226.938 0.151294C271.452 -0.0642102 325.8 -0.327316 336.005 1.52547C346.381 3.40922 356.031 6.8159 364.957 11.7455C369.132 14.0497 373.508 17.0524 378.087 20.7538C380.696 22.866 383.126 25.1106 385.377 27.4876C399.01 41.8757 407.047 58.7949 409.487 78.245C409.974 82.1218 410.124 87.0133 409.939 92.9195C409.83 96.3857 409.507 99.6699 408.971 102.772C405.372 123.536 395.842 140.826 380.381 154.642C370.191 163.753 358.321 170.154 344.77 173.845C330.521 177.725 316.136 177.947 301.616 174.511C264.584 165.746 237.47 134.276 233.994 96.4701C233.663 92.8549 233.549 89.5492 233.651 86.5531C234.363 65.8581 241.352 47.5237 254.618 31.5498C254.872 31.2443 255.17 30.9855 255.47 30.7257L255.471 30.7246C255.697 30.5287 255.923 30.3322 256.132 30.1146C256.156 30.0898 256.171 30.0586 256.177 30.0249C256.183 29.9912 256.179 29.9566 256.165 29.9254C256.151 29.8941 256.128 29.8676 256.1 29.8491C256.071 29.8307 256.037 29.8211 256.003 29.8217C245.588 29.8217 235.189 29.9462 224.807 30.0705C214.458 30.1945 204.125 30.3183 193.809 30.3183C192.604 30.3183 191.988 31.5872 191.549 32.4928L191.51 32.5728C189.729 36.1975 187.965 39.4354 186.218 42.6425C185.885 43.2547 185.552 43.8658 185.22 44.4782ZM374.621 112.595C376.478 108.43 377.759 104.692 378.464 101.382C379.567 96.197 380.302 90.5557 379.845 85.1974C378.481 69.2499 372.11 56.0685 360.731 45.6532C355.422 40.7965 348.465 36.4413 341.92 34.152C332.905 31.0036 323.395 30.0584 313.39 31.3164C309.945 31.7505 306.57 32.7349 303.246 33.7043C301.855 34.11 300.473 34.5131 299.098 34.8721C298.615 34.9979 298.14 35.2346 297.699 35.4928C293.121 38.1711 289.565 40.4207 287.006 42.331C262.355 60.7349 256.659 95.8246 273.93 121.265C281.519 132.445 292.048 140.126 305.519 144.307C308.085 145.102 310.814 145.675 313.708 146.026C330.523 148.068 345.308 144.036 358.064 133.929C365.29 128.203 370.867 121.002 374.621 112.595Z" fill="#EFF1FE"/>
<path d="M433.022 27.2631C440.26 27.2631 446.128 21.3956 446.128 14.1578C446.128 6.92 440.26 1.05258 433.022 1.05258C425.785 1.05258 419.917 6.92 419.917 14.1578C419.917 21.3956 425.785 27.2631 433.022 27.2631Z" fill="#EFF1FE"/>
<path fill-rule="evenodd" clip-rule="evenodd" d="M357.788 235.374H251.516C242.053 235.374 234.383 227.703 234.383 218.241C234.383 208.779 242.053 201.108 251.516 201.108H357.788C369.233 201.108 381.951 203.239 392.31 210.279C403.664 217.995 410.179 230.28 410.179 245.554C410.179 261.222 403.089 273.396 391.811 280.915C381.462 287.814 368.884 290 357.788 290H291.243C281.781 290 274.111 282.329 274.111 272.867C274.111 263.405 281.781 255.734 291.243 255.734H357.788C365.065 255.734 370.117 254.196 372.804 252.404C373.99 251.613 374.625 250.846 375.018 250.113C375.407 249.386 375.913 248.029 375.913 245.554C375.913 242.912 375.399 241.471 375.019 240.73C374.652 240.017 374.094 239.328 373.05 238.619C370.621 236.968 365.709 235.374 357.788 235.374Z" fill="#EFF1FE"/>
<path fill-rule="evenodd" clip-rule="evenodd" d="M101.294 126.171L31.8918 8.52051C27.0842 0.370759 16.5802 -2.3386 8.43046 2.46899C0.280706 7.27657 -2.42866 17.7806 2.37892 25.9303L86.3241 168.233C93.049 179.633 109.54 179.633 116.265 168.233L200.21 25.9303C205.017 17.7806 202.308 7.27657 194.158 2.46899C186.009 -2.3386 175.505 0.37077 170.697 8.52052L101.294 126.171Z" fill="#EFF1FE"/>
</svg>
